<?xml version="1.0" encoding="utf-8"?>
<!-- Generator: Adobe Illustrator 17.1.0, SVG Export Plug-In . SVG Version: 6.00 Build 0)  -->
<!DOCTYPE svg PUBLIC "-//W3C//DTD SVG 1.1//EN" "http://www.w3.org/Graphics/SVG/1.1/DTD/svg11.dtd">
<svg version="1.1" id="Layer_1" xmlns="http://www.w3.org/2000/svg" xmlns:xlink="http://www.w3.org/1999/xlink" x="0px" y="0px"
	 viewBox="0 0 84.8 76.1" enable-background="new 0 0 84.8 76.1" xml:space="preserve">
<path fill="#FFFFFF" stroke="#000000" stroke-miterlimit="10" d="M38.6,8.3"/>
<path fill="none" stroke="#E14D43" stroke-miterlimit="10" d="M38.6,4.8c41.5-3.1,10.6,45.3,45,56.2"/>
<path fill="none" stroke="#E14D43" stroke-miterlimit="10" d="M45.7,4.8C4.2,1.7,35.1,50.1,0.7,61"/>
<line fill="none" stroke="#E14D43" stroke-miterlimit="10" x1="0.7" y1="61" x2="83.7" y2="61"/>
<path fill="#E14D43" d="M80.6,60.1c-0.3-0.1-0.6-0.2-0.9-0.4c-0.1,0-0.2-0.1-0.3-0.2c0-0.1,0-0.2-0.2-0.3c0,0,0,0,0,0
	c0.1-0.1,0.1-0.2,0-0.4c-0.3-0.3-0.8-0.1-1.1,0c0,0,0,0,0,0c-0.1-0.4-0.5-0.7-0.9-0.9c-0.8-0.3-2.1-0.7-2.6-1.4
	c-0.6-0.8-0.8-1.5-1.8-2.1c-0.2-0.1-0.5-0.2-0.7-0.2c0-0.1-0.1-0.2-0.1-0.3c-0.2-0.7-0.5-1.3-0.8-2c-0.4-0.8-1.3-1.4-2.2-1.8
	c0-1.6-0.5-3-1.3-4.3c-0.3-1.4-1-2.6-2-3.6c0-1.1-0.1-2.2-0.4-3.2c0-0.6,0-1.2-0.2-1.9c-0.5-2.4-0.5-4.9-0.9-7.4c-0.4-2.6-1-4-1-6
	c0-1.2-0.3-2.2-0.7-3c0-0.6,0-1.3-0.1-2c-0.7-3.7-3.1-7.2-5.9-9.8c-3-2.7-7.4-3.9-11.4-4.4c-0.8-0.1-1.6-0.1-2.4-0.1
	c-0.3,0-0.6-0.1-0.9-0.1h-0.1c-0.5,0-1,0.1-1.5,0.1c-0.3,0-0.5,0-0.8,0C38.1,4.7,37,5,36,5.5c-1,0.1-1.8,0.4-2.4,0.9
	c-0.1,0-0.1,0-0.2,0c-1.9,0-3.3,0.9-4.1,2.1c-0.9,0.4-1.7,0.9-2.2,1.7c-0.4,0.3-0.7,0.7-0.9,1.1c-0.3,0.2-0.5,0.3-0.8,0.6
	c-0.9,0.8-1.5,2-1.6,3.1c-1.6,1.4-2.3,3.4-1.9,5.4c-0.3,0.8-0.5,1.7-0.4,2.5c0,0,0,0,0,0.1c-0.1,0.6-0.2,1.2-0.1,1.8
	c-0.3,1.2-0.7,2.4-0.7,3.6c0,0.6-0.1,1.3-0.1,1.9c-1,1.2-1.4,2.8-1.1,4.4c0.1,0.5,0.2,0.9,0.2,1.4c-0.1,0.4-0.3,0.8-0.3,1.3
	c-0.2,2.8-1.5,5.9-2.5,8.5c-1,2.5-1.6,5.2-3.6,7.2c-0.5,0.5-0.9,1-1.1,1.6c-0.1,0-0.2,0-0.3,0c-0.8,0.2-1.3,0.8-1.7,1.5
	c-0.5,0-0.9,0.2-1.2,0.5c-0.2,0.2-0.4,0.4-0.5,0.6c-0.6,0.1-1,0.5-1.1,1c-0.1,0-0.2,0-0.3,0c-0.9,0-1.3,0.6-1.4,1.2
	c-0.5,0.1-1,0.3-1.6,0.4c-0.3,0.1-0.8,0.4-0.7,0.8C3.5,61,4,61,4.4,60.9c0.5-0.1,1.1-0.3,1.6-0.4c0.2,0.2,0.6,0.4,1,0.4
	c0.2,0,0.4,0,0.5-0.1c0.2,0.3,0.6,0.5,1.1,0.5c0.7,0,1.4-0.1,2.2-0.2c0.4,0.1,0.8,0,1.2-0.1l0,0c1.1,0,2.1,0,3.1-0.1
	c0.3,0,0.7,0,1,0c0.7,0.1,1.3,0.1,2-0.1c4-0.2,8.1-0.4,12.1-0.4c0,0.1,0,0.2,0,0.2c1.9,0.1,3.7,0.4,5.6,0.2c0.7-0.1,1.4-0.2,2-0.4
	c1.2,0.1,2.2,0.3,3.4-0.1c0,0,0,0,0-0.1c0.1,0,0.1,0,0.2,0c0.1,0,0.3,0,0.4,0.1c0,0.1,0,0.1,0,0.1c1.6,0.1,3,0.2,4.6,0
	c2.4,0,4.8,0,7.2,0c0,0.3,0,0.5,0,0.5c3.5-0.1,7-0.4,10.4-0.5c0.9,0,1.9,0,2.8,0c1.1,0.4,2.4,0.4,3.5-0.1c0.1,0,0.3,0,0.5,0
	c0.2,0.2,0.6,0.4,1,0.4c1.7,0.1,3.4,0.2,5-0.3c0.1,0,0.1-0.1,0.2-0.1c0,0.2,0.1,0.3,0.3,0.3c0.7,0.2,1.5,0.1,2.2,0.1
	c0.4,0,0.7-0.1,1-0.3C81,60.5,81,60.2,80.6,60.1z"/>
<path fill="#E14D43" stroke="#E14D43" stroke-width="4.536" stroke-miterlimit="10" d="M54.6,70.1c0,1.4-0.8,2.5-1.8,2.5H32
	c-1,0-1.8-1.1-1.8-2.5l0,0c0-1.4,0.8-2.5,1.8-2.5h20.7C53.8,67.7,54.6,68.8,54.6,70.1L54.6,70.1z"/>
<line fill="none" stroke="#E14D43" stroke-miterlimit="10" x1="5.9" y1="60.4" x2="77.1" y2="60.4"/>
</svg>
