<?xml version="1.0" encoding="utf-8"?>
<!-- Generator: Adobe Illustrator 17.1.0, SVG Export Plug-In . SVG Version: 6.00 Build 0)  -->
<!DOCTYPE svg PUBLIC "-//W3C//DTD SVG 1.1//EN" "http://www.w3.org/Graphics/SVG/1.1/DTD/svg11.dtd">
<svg version="1.1" id="Layer_1" xmlns="http://www.w3.org/2000/svg" xmlns:xlink="http://www.w3.org/1999/xlink" x="0px" y="0px"
	 viewBox="0 0 100 100" enable-background="new 0 0 100 100" xml:space="preserve">
<circle opacity="0.1" fill="#6D6E71" enable-background="new    " cx="49.9" cy="50" r="50"/>
<path fill="#B9BABD" d="M57,90.3c0,3.1-3.2,5.6-7.1,5.6l0,0c-3.9,0-7.1-2.5-7.1-5.6V9.7c0-3.1,3.2-5.6,7.1-5.6l0,0
	c3.9,0,7.1,2.5,7.1,5.6V90.3z"/>
<path fill="#B9BABD" d="M90.1,42.8c3.1,0,5.6,3.2,5.6,7.1l0,0c0,3.9-2.5,7.1-5.6,7.1H9.6C6.5,57,4,53.8,4,49.9l0,0
	c0-3.9,2.5-7.1,5.6-7.1H90.1z"/>
</svg>
